<?xml version="1.0" encoding="UTF-8" standalone="no"?>
<svg
   version="1.1"
   width="40"
   height="40"
   id="svg6"
   sodipodi:docname="resizedansibleoperatorpluslogo.svg"
   inkscape:version="1.4 (86a8ad7, 2024-10-11)"
   xmlns:inkscape="http://www.inkscape.org/namespaces/inkscape"
   xmlns:sodipodi="http://sodipodi.sourceforge.net/DTD/sodipodi-0.dtd"
   xmlns="http://www.w3.org/2000/svg"
   xmlns:svg="http://www.w3.org/2000/svg">
  <defs
     id="defs6" />
  <sodipodi:namedview
     id="namedview6"
     pagecolor="#ffffff"
     bordercolor="#000000"
     borderopacity="0.25"
     inkscape:showpageshadow="2"
     inkscape:pageopacity="0.0"
     inkscape:pagecheckerboard="0"
     inkscape:deskcolor="#d1d1d1"
     inkscape:zoom="9.5644444"
     inkscape:cx="27.184015"
     inkscape:cy="19.812965"
     inkscape:window-width="1920"
     inkscape:window-height="1009"
     inkscape:window-x="-8"
     inkscape:window-y="-8"
     inkscape:window-maximized="1"
     inkscape:current-layer="svg6" />
  <path
     d="m 18.864329,7.2688122e-4 c 0.07767,-1.1841538e-4 0.15534,-2.2883872e-4 0.235364,-3.472541e-4 0.164022,1.3413306e-4 0.328046,0.001041893 0.492061,0.002677323 0.249984,0.00227774 0.499835,0.00162505 0.749826,5.9994e-4 0.159715,4.8938e-4 0.319429,0.00115472 0.479143,0.00199801 0.111412,-3.4739e-4 0.111412,-3.4739e-4 0.225072,-7.025e-4 0.487625,0.00692643 0.90408,0.04934285 1.284536,0.38390453 0.231282,0.37196348 0.346211,0.75311317 0.459852,1.17142177 0.274839,1.2433598 0.274839,1.2433598 0.953774,2.2697302 0.410491,0.1887053 0.831491,0.207812 1.278477,0.2195344 0.331074,0.025519 0.615078,0.1410608 0.918888,0.2675576 0.187489,0.074049 0.374995,0.1480538 0.562525,0.2220012 0.07722,0.039275 0.15442,0.078552 0.23397,0.1190174 0.280562,0.044685 0.320716,0.018855 0.550392,-0.1279592 0.113105,-0.08258 0.22496,-0.1668658 0.33571,-0.2525263 0.120067,-0.088541 0.240157,-0.1770325 0.36029,-0.2654762 0.05922,-0.044426 0.118428,-0.088853 0.179446,-0.134627 0.243652,-0.1808505 0.493425,-0.3520933 0.744614,-0.5224347 0.07833,-0.053724 0.156681,-0.1074489 0.237393,-0.1628007 0.07444,-0.050468 0.148877,-0.1009368 0.22557,-0.1529341 0.07526,-0.060236 0.150521,-0.1204733 0.22806,-0.1825342 0.26765,-0.1426964 0.427999,-0.1628956 0.726803,-0.1069148 0.280946,0.092312 0.49128,0.2527505 0.71778,0.4374498 0.0465,0.035308 0.09302,0.070615 0.140942,0.1069921 0.13285,0.1045252 0.13285,0.1045252 0.336955,0.2975431 0,0.2778964 -0.10039,0.4045006 -0.240193,0.6375595 -0.123736,0.239545 -0.160633,0.4903253 -0.197879,0.7536473 -0.01872,0.1176015 -0.03761,0.235179 -0.05663,0.3527351 -0.01474,0.093255 -0.01474,0.093255 -0.02979,0.1883926 -0.07157,0.4305661 -0.159285,0.858297 -0.243539,1.2865661 -0.05767,0.2961719 -0.112823,0.5908275 -0.152299,0.8899703 -0.03547,0.2324818 -0.03547,0.2324818 -0.115121,0.3114151 -0.113992,0.00719 -0.228347,0.00906 -0.342574,0.00866 -0.07289,4.53e-5 -0.145772,7.86e-5 -0.220866,1.571e-4 -0.07948,-1.571e-4 -0.15895,-3.156e-4 -0.240834,-4.728e-4 -0.167442,0.00107 -0.334882,0.00226 -0.502321,0.0036 -0.264638,0.00186 -0.52919,0.00293 -0.793833,0.002 -0.254988,-7.099e-4 -0.509808,0.0016 -0.764779,0.0044 -0.117527,-0.00147 -0.117527,-0.00147 -0.237414,-0.00293 -0.481953,0.00839 -0.783419,0.089404 -1.151867,0.4053389 -0.360699,0.3769539 -0.431664,0.8389524 -0.52511,1.3313539 -0.01362,0.068665 -0.02723,0.1373232 -0.04126,0.2080647 -0.04312,0.2180969 -0.08527,0.4363639 -0.127366,0.6546539 -0.04289,0.21881 -0.08597,0.437582 -0.129072,0.656348 -0.02668,0.135782 -0.0532,0.271597 -0.07952,0.40745 -0.01196,0.06166 -0.02397,0.123317 -0.0363,0.186847 -0.01048,0.05396 -0.02085,0.107919 -0.03159,0.163517 -0.02245,0.107933 -0.04766,0.215318 -0.07496,0.322148 -0.125578,0.505147 -0.06332,1.0406 0.202097,1.490107 0.273223,0.30656 0.612949,0.523953 1.028262,0.569056 0.183048,0.0093 0.365594,0.01356 0.548862,0.01617 0.06661,0.0015 0.133239,0.0031 0.201869,0.0047 0.211787,0.0047 0.423577,0.0084 0.635385,0.01199 0.144003,0.0031 0.288006,0.0061 0.432006,0.0092 0.352138,0.0076 0.704282,0.0142 1.056446,0.02035 -0.07762,0.74172 -0.07762,0.74172 -0.154321,1.108464 -0.01375,0.0668 -0.02751,0.133599 -0.04169,0.202423 -0.01417,0.0672 -0.02833,0.134411 -0.04294,0.203654 -0.316212,1.248574 -0.316212,1.248574 -0.02177,2.453729 0.228541,0.307077 0.528307,0.460283 0.897924,0.530953 0.140127,0.0083 0.280518,0.01252 0.420884,0.01397 0.126048,0.0015 0.126048,0.0015 0.254636,0.0031 0.09044,5.53e-4 0.180876,0.0012 0.274054,0.0017 0.140257,9.55e-4 0.140257,9.55e-4 0.283348,0.002 0.197909,0.0011 0.395819,0.002 0.593731,0.0025 0.301723,0.0013 0.603377,0.0048 0.905081,0.0083 0.192486,7.96e-4 0.384974,0.0015 0.57746,0.002 0.08978,0.0013 0.179585,0.0028 0.272099,0.0041 0.512338,-0.0013 0.93801,-0.03858 1.356983,-0.353532 0.57069,-0.75904 0.613311,-1.912367 0.799978,-2.82718 0.03691,-0.180706 0.0741,-0.361354 0.111331,-0.541994 0.01129,-0.05566 0.02257,-0.111316 0.03419,-0.168668 0.0809,-0.390911 0.0809,-0.390911 0.169594,-0.566712 1.209082,0 2.418162,0 3.663882,0 0.274636,0.816505 0.274636,0.816505 0.278773,1.15934 0.0038,0.103017 0.0038,0.103017 0.0075,0.208126 -0.110914,0.495325 -0.545843,0.77997 -0.948329,1.04988 -0.04499,0.03194 -0.08997,0.06388 -0.136313,0.0968 -0.263398,0.186636 -0.526014,0.357655 -0.810362,0.511415 -0.417798,0.241565 -0.839603,0.489057 -1.011344,0.958007 -0.0909,0.464652 -0.08281,0.926608 -0.05983,1.397672 0.01169,0.248921 0.01304,0.496367 0.0129,0.745533 0.0031,0.159372 0.0069,0.318732 0.01116,0.478073 7.16e-4,0.07361 0.0015,0.1472 0.0022,0.223029 0.01823,0.311956 0.04012,0.515157 0.246267,0.759453 0.159564,0.13981 0.321244,0.264288 0.49581,0.384984 0.106263,0.08135 0.106263,0.08135 0.21468,0.164342 0.06386,0.04507 0.127729,0.09015 0.193524,0.136593 0.07331,0.0522 0.146618,0.104403 0.222147,0.158176 0.180031,0.126248 0.360482,0.251762 0.541369,0.376785 0.05009,0.03487 0.100188,0.06973 0.151793,0.105668 0.09792,0.06809 0.196148,0.135756 0.294719,0.202923 0.499763,0.347789 0.499763,0.347789 0.611957,0.592059 0.02012,0.559303 -0.17858,1.113665 -0.338511,1.642809 -0.03764,0.125689 -0.03764,0.125689 -0.07603,0.253914 -0.554466,1.819862 -0.554466,1.819862 -1.019149,2.286765 -0.306174,0.0823 -0.587517,0.08376 -0.903215,0.07215 -0.146848,-0.0052 -0.146848,-0.0052 -0.296664,-0.01052 -0.101801,-0.0041 -0.203601,-0.0081 -0.308487,-0.01239 -0.148542,-0.0052 -0.148542,-0.0052 -0.300086,-0.01052 -0.672985,-0.02495 -1.343333,-0.06609 -2.01473,-0.117789 -0.03596,0.09156 -0.03596,0.09156 -0.07263,0.184963 -0.329196,0.796526 -0.940227,1.50394 -1.53063,2.124466 -0.05082,0.05352 -0.10164,0.10704 -0.15401,0.162182 -0.04528,0.04528 -0.09056,0.09056 -0.137208,0.13721 -0.139375,0.221617 -0.11535,0.367035 -0.09676,0.627461 0.05594,0.222048 0.131707,0.435702 0.209079,0.651203 0.02121,0.06129 0.04243,0.122558 0.06429,0.185695 0.06749,0.194881 0.13589,0.389426 0.20453,0.583909 0.09044,0.256258 0.179918,0.512817 0.268817,0.769604 0.0209,0.05822 0.04181,0.116458 0.06336,0.176446 0.111693,0.322946 0.194857,0.602935 0.145725,0.948359 -0.115591,0.149602 -0.115591,0.149602 -0.276285,0.274726 -0.05843,0.04634 -0.116841,0.09267 -0.177032,0.140409 -0.06069,0.04534 -0.121358,0.09068 -0.183879,0.137401 -0.05493,0.04198 -0.109866,0.08397 -0.166456,0.12722 -0.41421,0.310679 -0.840403,0.605596 -1.267238,0.898913 -0.05937,0.0408 -0.118737,0.0816 -0.179911,0.123637 -0.16776,0.113753 -0.336943,0.224917 -0.507067,0.335159 -0.07477,0.0505 -0.07477,0.0505 -0.151054,0.102005 -0.293502,0.185128 -0.547985,0.289804 -0.907492,0.268753 -0.343412,-0.08317 -0.608322,-0.297865 -0.887891,-0.503954 -0.133038,-0.09376 -0.266098,-0.187499 -0.399182,-0.281202 -0.130793,-0.09372 -0.261571,-0.187448 -0.392336,-0.281201 -0.221003,-0.156596 -0.443439,-0.310849 -0.667065,-0.463735 -0.04776,-0.03427 -0.0955,-0.06856 -0.144697,-0.10387 -0.261907,-0.182778 -0.261907,-0.182778 -0.571255,-0.198915 -0.213669,0.0571 -0.421528,0.121798 -0.630625,0.193633 -0.07976,0.02707 -0.159516,0.05413 -0.241691,0.08201 -0.0837,0.02849 -0.167396,0.05698 -0.25363,0.08633 -1.67572,0.562403 -1.67572,0.562403 -2.270015,0.562403 -0.01223,0.04342 -0.02445,0.08683 -0.03704,0.131562 -0.165416,0.567791 -0.366117,1.12106 -0.576759,1.673641 -0.05856,0.154197 -0.116036,0.30877 -0.173514,0.463371 -0.03774,0.09946 -0.07554,0.1989 -0.113414,0.298313 -0.03352,0.08881 -0.06703,0.177618 -0.101573,0.269119 -0.13839,0.297389 -0.287837,0.565939 -0.590702,0.71601 -0.11785,0.0079 -0.236035,0.01092 -0.354145,0.01146 -0.110095,7.88e-4 -0.110095,7.88e-4 -0.222405,0.0015 -0.07957,7.8e-5 -0.159128,1.58e-4 -0.241103,2.37e-4 -0.08173,2.37e-4 -0.163465,5.53e-4 -0.247675,7.98e-4 -0.173282,3.94e-4 -0.346564,5.51e-4 -0.519847,5.51e-4 -0.264485,1.59e-4 -0.528942,0.0016 -0.793424,0.0031 -0.168321,2.37e-4 -0.336644,3.96e-4 -0.504965,4.74e-4 -0.118374,8.53e-4 -0.118374,8.53e-4 -0.239148,0.0017 -0.451634,-0.0015 -0.849003,-0.0087 -1.235148,-0.270202 -0.156086,-0.219819 -0.228391,-0.464092 -0.309109,-0.717881 -0.02781,-0.08426 -0.02781,-0.08426 -0.05618,-0.170215 -0.05911,-0.17944 -0.117258,-0.359172 -0.175293,-0.538956 -0.0582,-0.178599 -0.116613,-0.357127 -0.175293,-0.535571 -0.0364,-0.110863 -0.0725,-0.221825 -0.108253,-0.332897 -0.113051,-0.346487 -0.228711,-0.680923 -0.393475,-1.006207 -0.222811,-0.08763 -0.385869,-0.132148 -0.617284,-0.167734 -0.122473,-0.02359 -0.244849,-0.04765 -0.367135,-0.07215 -0.06176,-0.01199 -0.123522,-0.02407 -0.187145,-0.03646 -0.67268,-0.145205 -1.337557,-0.389613 -1.94815,-0.70231 -0.192201,-0.06255 -0.27257,-0.03274 -0.464519,0.03145 -0.145115,0.08452 -0.287131,0.174338 -0.426872,0.267326 -0.08234,0.05459 -0.164688,0.109184 -0.249528,0.165422 -0.08563,0.05744 -0.171258,0.114872 -0.259483,0.174054 -0.08439,0.05592 -0.168794,0.111822 -0.25575,0.169431 -0.420819,0.280181 -0.835255,0.564882 -1.236513,0.872066 -0.2589321,0.189393 -0.4381675,0.20035 -0.7578385,0.167177 C 9.2238361,37.195113 9.0123883,37.06283 8.7967766,36.926276 8.7347336,36.887848 8.6726904,36.849433 8.6087764,36.809846 7.9315123,36.382352 7.2959701,35.900826 6.6711281,35.401872 6.6243541,35.364816 6.5775931,35.327746 6.5294076,35.289557 6.2030844,35.026731 6.2030844,35.026731 6.1135806,34.849333 c -0.042766,-0.57696 0.071895,-0.984935 0.2937079,-1.51454 0.058233,-0.145825 0.1164168,-0.291667 0.1745452,-0.437529 0.05625,-0.138672 0.1125673,-0.277322 0.1689437,-0.415943 0.084946,-0.209873 0.1676157,-0.42014 0.2489048,-0.631469 0.033065,-0.08302 0.066129,-0.166058 0.1001883,-0.251602 0.061868,-0.279431 0.031371,-0.368433 -0.110148,-0.616669 C 6.8507304,30.781911 6.7020528,30.590707 6.5516145,30.399444 6.1392174,29.86615 5.7565607,29.319255 5.3858053,28.756945 5.2587366,28.550533 5.2587366,28.550533 5.1577462,28.455702 c -0.1426007,-0.0023 -0.2853009,0.0011 -0.4278052,0.0068 -0.089519,0.0035 -0.1790365,0.0069 -0.2712675,0.01039 -0.096218,0.0041 -0.1924359,0.0081 -0.2915693,0.01239 -0.1458664,0.0053 -0.1458664,0.0053 -0.2946797,0.01079 -0.4386074,0.01688 -0.8757006,0.0367 -1.3129355,0.0755 -0.064897,0.0053 -0.1297918,0.01066 -0.196655,0.01622 -0.118031,0.01026 -0.2359252,0.02227 -0.3535613,0.03631 C 1.713105,28.649182 1.5918576,28.627002 1.350744,28.448544 1.1656475,28.206659 1.0560322,27.994635 0.94627025,27.71111 0.91736435,27.63665 0.91736435,27.63665 0.88787505,27.560681 -0.06913738,25.036594 -0.06913738,25.036594 0.06016825,24.193626 0.30761417,23.838478 0.69365189,23.646723 1.0589003,23.423098 c 0.3560553,-0.22349 0.695944,-0.469695 1.0373111,-0.714413 0.063574,-0.04544 0.1271493,-0.09086 0.1926486,-0.137671 0.4279144,-0.262902 0.4279144,-0.262902 0.6683782,-0.662581 0.00442,-0.06294 0.00884,-0.125875 0.013414,-0.190715 0.00519,-0.07146 0.010363,-0.142922 0.015702,-0.216547 0.018743,-0.32925 0.0351,-0.658495 0.048508,-0.988001 0.00806,-0.173048 0.01843,-0.346005 0.031191,-0.518774 C 3.1684346,19.061328 3.1684346,19.061328 2.904904,18.192141 2.6506712,17.920421 2.3538434,17.73272 2.0266747,17.557354 1.8587693,17.466138 1.7102021,17.356599 1.558894,17.240668 1.4733671,17.181047 1.3878401,17.121413 1.2997214,17.059984 1.2118786,16.998525 1.1240359,16.937066 1.0361935,16.8756 0.89891497,16.779895 0.76152344,16.684339 0.62328353,16.590004 0.22810361,16.31735 0.22810361,16.31735 0.13982396,16.142379 c -0.07213448,-0.756072 0.0708374,-1.379815 0.32855459,-2.08681 0.0489181,-0.139109 0.0489181,-0.139109 0.098824,-0.281028 0.64577215,-1.814249 0.64577215,-1.814249 1.00631475,-2.05245 0.1654944,-0.01052 0.1654944,-0.01052 0.3581318,0.0021 0.072359,0.0041 0.1447185,0.0081 0.2192714,0.01239 0.078153,0.0048 0.1563059,0.0096 0.2368278,0.01448 0.1661825,0.0067 0.3323794,0.01292 0.4985874,0.01881 0.2618513,0.0097 0.5229037,0.02119 0.7843432,0.03882 0.9447559,0.100207 0.9447559,0.100207 1.7993134,-0.205066 0.2555192,-0.296104 0.4097527,-0.625671 0.5622228,-0.981707 0.1378886,-0.275962 0.3382353,-0.497002 0.5442933,-0.7251732 0.035229,-0.03976 0.070457,-0.079521 0.1067474,-0.12048 C 6.9837735,9.4380217 6.9837735,9.4380217 7.1123946,9.3295045 7.2534929,9.2095173 7.2534929,9.2095173 7.3879392,8.9594264 7.3621731,8.652311 7.2556138,8.3790566 7.1489901,8.0911553 7.0908045,7.9178733 7.032619,7.7445885 6.9744469,7.5713022 6.9117856,7.3925711 6.848842,7.2139433 6.7855892,7.0354164 6.753815,6.9447574 6.7220408,6.854097 6.6892988,6.7606901 6.5255809,6.2902914 6.5255809,6.2902914 6.3425619,5.8271558 6.2426465,5.5649332 6.2611761,5.4367772 6.3524947,5.1705953 6.684241,4.7794196 7.0885048,4.4649193 7.5024353,4.1641905 7.5566154,4.1243741 7.6107822,4.0845578 7.6665967,4.043536 9.5283632,2.6846059 9.5283632,2.6846059 10.079537,2.6929713 c 0.33398,0.058287 0.559298,0.2732527 0.812986,0.4845481 0.118522,0.093547 0.237067,0.1870745 0.355623,0.2805848 0.17943,0.1444693 0.358444,0.2894302 0.537363,0.4345208 0.16745,0.1348045 0.336514,0.2673792 0.505859,0.3998331 0.07523,0.062691 0.07523,0.062691 0.151988,0.1266486 0.272615,0.2122716 0.393214,0.2775586 0.750916,0.2800449 0.362812,-0.074615 0.704964,-0.2074796 1.048512,-0.3425597 1.600294,-0.6068029 1.600294,-0.6068029 2.304861,-0.6068029 0.01899,-0.095035 0.03798,-0.19007 0.05755,-0.287985 0.114731,-0.5109853 0.286268,-1.0024543 0.455185,-1.4978905 0.03147,-0.093813 0.06294,-0.1876279 0.09536,-0.2842847 0.08728,-0.2579191 0.176758,-0.5148999 0.268039,-0.77145383 0.02044,-0.0586842 0.04089,-0.11736976 0.06195,-0.17783206 0.264565,-0.69168222 0.708872,-0.7375765 1.378587,-0.72961549597 z"
     fill="#020203"
     id="path2"
     style="stroke-width:0.0792908" />
  <path
     d="m 18.864329,7.2688122e-4 0.235364,-3.472541e-4 c 0.164022,1.3413306e-4 0.328046,0.001041893 0.492061,0.002677323 0.249984,0.00227774 0.499835,0.00162505 0.749826,5.9994e-4 0.159715,4.8938e-4 0.319429,0.00115472 0.479143,0.00199801 l 0.225072,-7.025e-4 c 0.487625,0.00692643 0.90408,0.04934285 1.284536,0.38390453 0.231282,0.37196348 0.346211,0.75311317 0.459852,1.17142177 0.274839,1.2433598 0.274839,1.2433598 0.953774,2.2697302 0.410491,0.1887053 0.831491,0.207812 1.278477,0.2195344 0.331074,0.025519 0.615078,0.1410608 0.918888,0.2675576 0.187489,0.074049 0.374995,0.1480538 0.562525,0.2220012 l 0.23397,0.1190174 c 0.280562,0.044685 0.320716,0.018855 0.550392,-0.1279592 0.113105,-0.08258 0.22496,-0.1668658 0.33571,-0.2525263 0.120067,-0.088541 0.240157,-0.1770333 0.36029,-0.2654762 l 0.179446,-0.134627 C 28.407307,3.6966803 28.65708,3.5254375 28.908269,3.3550961 l 0.237393,-0.1628007 0.22557,-0.1529373 0.22806,-0.1825342 c 0.26765,-0.1426964 0.427999,-0.1628956 0.726803,-0.1069148 0.280946,0.092312 0.49128,0.2527505 0.71778,0.4374498 l 0.140942,0.1069921 c 0.13285,0.1045252 0.13285,0.1045252 0.336955,0.297543 0,0.2778965 -0.10039,0.4045007 -0.240193,0.6375596 -0.123736,0.2395448 -0.160633,0.4903252 -0.197879,0.7536473 -0.01872,0.1176015 -0.03761,0.235179 -0.05663,0.352735 l -0.02979,0.1883927 c -0.07157,0.4305661 -0.159285,0.8582968 -0.243539,1.2865652 -0.05767,0.2961727 -0.112823,0.5908284 -0.152299,0.8899704 -0.03547,0.2324844 -0.03547,0.2324844 -0.115121,0.3114178 -0.114798,0.00839 -0.229996,0.011589 -0.345102,0.012388 l -0.222424,0.0024 -0.242348,0.00173 c -0.168167,0.00226 -0.336334,0.00453 -0.504499,0.00679 -0.266024,0.0032 -0.532036,0.00613 -0.798072,0.00826 -0.256131,0.00213 -0.512209,0.00586 -0.76832,0.00959 l -0.239904,7.899e-4 c -0.43484,0.00759 -0.715712,0.054639 -1.100761,0.2736394 C 26.067946,8.2667244 26.067946,8.2667244 25.861665,8.1403024 24.871215,7.6023742 23.768691,7.3139527 22.670711,7.0746912 L 22.448,7.0261089 C 19.089762,6.3336509 15.433138,7.1348046 12.565167,8.9592333 11.762156,9.497954 11.032381,10.108481 10.334978,10.774709 l -0.172367,0.158485 c -2.3116351,2.181335 -3.6863581,5.547848 -3.7640082,8.683171 -0.00759,1.372869 0.1365897,2.778824 0.5114408,4.103473 l 0.066277,0.247593 c 0.1973617,0.689965 0.4870058,1.323762 0.8098743,1.962552 l 0.074718,0.149967 c 0.6075099,1.211311 1.404727,2.240672 2.3147651,3.244183 l 0.145299,0.161567 c 0.416589,0.436764 0.911646,0.793563 1.39274,1.156834 0.115431,0.08782 0.229263,0.177705 0.342749,0.267981 2.765835,2.128954 6.464627,2.760583 9.872508,2.35537 1.360708,-0.185551 2.734622,-0.541527 3.951873,-1.182156 0.160283,-0.08378 0.32226,-0.163689 0.484549,-0.243584 0.715748,-0.357237 1.346492,-0.751426 1.970392,-1.25291 l 0.214058,-0.163727 c 2.384862,-1.858448 4.134002,-4.530661 4.724218,-7.492844 l 0.04192,-0.197295 c 0.257055,-1.221917 0.338706,-2.423818 0.356325,-3.670458 l 0.164784,-0.03002 0.216664,-0.04089 0.214564,-0.03989 c 0.286646,-0.06728 0.459975,-0.166965 0.678383,-0.362795 0.322166,-0.530462 0.418161,-1.051318 0.517723,-1.657609 0.135595,-0.803481 0.317293,-1.573495 0.517722,-2.368009 h 3.663882 c 0.274636,0.816505 0.274636,0.816505 0.278773,1.15934 l 0.0075,0.208126 c -0.110914,0.495325 -0.545843,0.77997 -0.948329,1.04988 l -0.136313,0.0968 c -0.263398,0.186636 -0.526014,0.357654 -0.810362,0.511415 -0.417798,0.241565 -0.839603,0.489057 -1.011344,0.958006 -0.0909,0.464653 -0.08281,0.926607 -0.05982,1.397673 0.01169,0.248921 0.01304,0.496367 0.0129,0.745533 0.0031,0.159372 0.0069,0.318732 0.01116,0.478073 l 0.0022,0.223029 c 0.01823,0.311956 0.04012,0.515157 0.246267,0.759453 0.159564,0.13981 0.321244,0.264288 0.49581,0.384984 l 0.21468,0.164342 0.193524,0.136592 0.222147,0.158177 c 0.180031,0.126247 0.360482,0.251761 0.541369,0.376785 l 0.151793,0.105668 c 0.09792,0.06809 0.196148,0.135756 0.294719,0.202923 0.499763,0.347789 0.499763,0.347789 0.611957,0.592059 0.02012,0.559303 -0.17858,1.113664 -0.338511,1.642809 l -0.07606,0.253914 c -0.554466,1.819862 -0.554466,1.819862 -1.019149,2.286765 -0.306174,0.08231 -0.587517,0.08374 -0.903215,0.07216 l -0.296664,-0.01052 -0.308487,-0.01239 -0.300086,-0.01052 c -0.672989,-0.02495 -1.343337,-0.06609 -2.014734,-0.117789 l -0.07263,0.184962 c -0.329196,0.796527 -0.940227,1.503941 -1.53063,2.124466 l -0.15401,0.162183 -0.137208,0.137209 c -0.139375,0.221618 -0.11535,0.367036 -0.09676,0.627462 0.05594,0.222048 0.131707,0.435702 0.209079,0.651203 l 0.06429,0.185695 c 0.06749,0.194881 0.13589,0.389426 0.20453,0.583909 0.09044,0.256258 0.179918,0.512817 0.268817,0.769604 l 0.06336,0.176446 c 0.111694,0.322946 0.194858,0.602934 0.145726,0.948359 -0.115591,0.149602 -0.115591,0.149602 -0.276285,0.274726 l -0.177032,0.140409 -0.183879,0.137401 -0.166456,0.12722 c -0.41421,0.310679 -0.840403,0.605596 -1.267238,0.898912 l -0.179911,0.12365 c -0.16776,0.113753 -0.336943,0.224916 -0.507067,0.335159 l -0.151054,0.102005 c -0.293503,0.185128 -0.547985,0.289804 -0.907492,0.268753 -0.343412,-0.08317 -0.608322,-0.297865 -0.887891,-0.503954 -0.133038,-0.09376 -0.266098,-0.1875 -0.399182,-0.281202 -0.130793,-0.09372 -0.261571,-0.187448 -0.392336,-0.281201 -0.221003,-0.156596 -0.443439,-0.310849 -0.667065,-0.463735 l -0.144697,-0.10387 c -0.261907,-0.182778 -0.261907,-0.182778 -0.571256,-0.198915 -0.213668,0.0571 -0.421527,0.121798 -0.630624,0.193633 l -0.241691,0.08201 -0.25363,0.08634 c -1.675721,0.562402 -1.675721,0.562402 -2.270016,0.562402 l -0.03704,0.131562 c -0.165417,0.567791 -0.366117,1.12106 -0.57676,1.673641 -0.05856,0.154197 -0.116035,0.30877 -0.173513,0.463371 -0.03774,0.09946 -0.07554,0.1989 -0.113415,0.298312 l -0.101572,0.26912 c -0.13839,0.297389 -0.287837,0.565939 -0.590702,0.716011 -0.11785,0.0079 -0.236036,0.01092 -0.354146,0.01145 l -0.222405,0.0015 -0.241102,2.37e-4 -0.247675,7.97e-4 c -0.173282,3.95e-4 -0.346565,5.53e-4 -0.519847,5.53e-4 -0.264486,1.58e-4 -0.528943,0.0016 -0.793424,0.0031 -0.168322,2.37e-4 -0.336644,3.94e-4 -0.504966,4.74e-4 L 18.681802,40 C 18.230169,39.9985 17.8328,39.9913 17.446654,39.729798 17.290568,39.509979 17.218263,39.265706 17.137545,39.011918 l -0.05618,-0.170216 c -0.05911,-0.17944 -0.117244,-0.359172 -0.175293,-0.538955 -0.0582,-0.1786 -0.116613,-0.357127 -0.175293,-0.535572 -0.0364,-0.110863 -0.0725,-0.221825 -0.108253,-0.332897 -0.113051,-0.346486 -0.228711,-0.680923 -0.393474,-1.006207 -0.222811,-0.08763 -0.385869,-0.132148 -0.617285,-0.167734 -0.122473,-0.02359 -0.244848,-0.04765 -0.367134,-0.07216 l -0.187146,-0.03646 c -0.672679,-0.145204 -1.337555,-0.389613 -1.94815,-0.702309 -0.1922,-0.06255 -0.272568,-0.03274 -0.464519,0.03145 -0.145114,0.08452 -0.28713,0.174339 -0.426871,0.267326 l -0.249527,0.165422 -0.259484,0.174054 -0.255749,0.169432 c -0.420821,0.280179 -0.835256,0.564881 -1.236515,0.872066 C 9.9577265,37.318556 9.7784911,37.329513 9.4588201,37.29634 9.2237917,37.195174 9.0123439,37.062891 8.7967322,36.926338 L 8.6087387,36.810133 C 7.9314747,36.382639 7.2959324,35.901114 6.6710904,35.40216 L 6.5293699,35.289845 c -0.3263232,-0.262822 -0.3263232,-0.262822 -0.415827,-0.44022 -0.042766,-0.57696 0.071895,-0.984935 0.2937079,-1.514541 0.058233,-0.145824 0.1164155,-0.291667 0.1745452,-0.437528 0.05625,-0.138672 0.1125673,-0.277322 0.1689437,-0.415943 0.084946,-0.209874 0.1676158,-0.42014 0.2489048,-0.63147 l 0.1001883,-0.251601 c 0.061868,-0.279431 0.031371,-0.368433 -0.110148,-0.61667 C 6.8507277,30.782203 6.7020502,30.590999 6.5516118,30.399736 6.1392147,29.866442 5.756558,29.319547 5.3858026,28.757236 5.2587339,28.550825 5.2587339,28.550825 5.1577435,28.455994 c -0.1426007,-0.0023 -0.2853009,0.0011 -0.4278052,0.0068 l -0.2712675,0.01039 -0.2915693,0.01239 -0.2946797,0.01079 c -0.4386074,0.01688 -0.8757005,0.0367 -1.3129355,0.0755 l -0.196655,0.01622 c -0.118031,0.01026 -0.2359252,0.02227 -0.3535613,0.03631 -0.2961676,0.02508 -0.4174151,0.0029 -0.6585287,-0.175559 C 1.1656475,28.206595 1.0560322,27.994569 0.94627025,27.711046 L 0.88787504,27.560618 C -0.06913336,25.03653 -0.06913336,25.03653 0.06017227,24.193562 0.30761819,23.838415 0.69365591,23.646659 1.0589044,23.423034 1.4149596,23.199544 1.7548484,22.953339 2.0962155,22.708621 L 2.288864,22.57095 c 0.4279144,-0.262902 0.4279144,-0.262902 0.6683782,-0.662581 l 0.013414,-0.190715 0.015702,-0.216547 c 0.018743,-0.32925 0.035099,-0.658496 0.048508,-0.988003 0.00806,-0.173046 0.01843,-0.346003 0.031191,-0.518772 C 3.1684386,19.061272 3.1684386,19.061272 2.904908,18.192084 2.6506752,17.920366 2.3538474,17.732664 2.0266787,17.557298 1.8587733,17.466081 1.7102061,17.356543 1.558898,17.240612 L 1.2997254,17.059928 1.0361975,16.875544 C 0.898919,16.779839 0.76152748,16.684283 0.62328757,16.589948 0.22810764,16.317294 0.22810764,16.317294 0.13982799,16.142323 c -0.07213448,-0.756072 0.0708374,-1.379815 0.3285546,-2.08681 l 0.098824,-0.281028 c 0.64577211,-1.814249 0.64577211,-1.814249 1.00631471,-2.05245 0.1654944,-0.01052 0.1654944,-0.01052 0.3581318,0.0021 l 0.2192714,0.01239 0.2368278,0.01448 c 0.1661825,0.0067 0.3323795,0.01292 0.4985874,0.01881 0.2618513,0.0097 0.5229037,0.02119 0.7843432,0.03881 0.944756,0.100207 0.944756,0.100207 1.7993134,-0.205066 C 5.7255155,11.307485 5.879749,10.977918 6.0322192,10.621882 6.1701077,10.34592 6.3704544,10.12488 6.5765124,9.8967088 l 0.1067474,-0.12048 C 6.9837776,9.4379658 6.9837776,9.4379658 7.1123986,9.3294485 7.2534969,9.2094614 7.2534969,9.2094614 7.3879432,8.9593705 7.3621771,8.6522551 7.2556179,8.3790006 7.1489941,8.0910994 7.0908086,7.9178173 7.032623,7.7445326 6.9744509,7.5712461 6.9117896,7.392515 6.848846,7.2138864 6.7855932,7.0353605 L 6.6893028,6.760622 C 6.5255849,6.2902355 6.5255849,6.2902355 6.342566,5.8270998 6.2426505,5.5648772 6.2611801,5.4367211 6.3524988,5.1705394 6.684245,4.7793635 7.0885088,4.4648632 7.5024393,4.1641344 L 7.6666008,4.0434786 C 9.5283672,2.6845493 9.5283672,2.6845493 10.079541,2.6929147 c 0.33398,0.058287 0.559298,0.2732527 0.812986,0.4845481 0.118522,0.093547 0.237067,0.1870745 0.355623,0.2805849 0.17943,0.1444692 0.358444,0.2894302 0.537363,0.4345206 0.167451,0.1348046 0.336514,0.2673785 0.505859,0.3998332 l 0.151988,0.1266486 c 0.272615,0.2122717 0.393215,0.2775585 0.750916,0.280045 0.362812,-0.074615 0.704964,-0.2074797 1.048512,-0.3425597 1.600294,-0.606803 1.600294,-0.606803 2.304861,-0.606803 l 0.05755,-0.2879849 C 16.719934,2.9507621 16.891471,2.4592931 17.060388,1.963857 l 0.09536,-0.2842848 c 0.08729,-0.2579191 0.176758,-0.5148999 0.268039,-0.77145371 l 0.06195,-0.17783219 c 0.264565,-0.69162614 0.708872,-0.73752043 1.378588,-0.72955941878 z"
     fill="#2971b3"
     id="path3"
     sodipodi:nodetypes="ccccccccccccccccccccccccccccccccccccccccccccccccccccccccccccccccccccccccccccccccccccccccccccccccccccccccscccccccsccccccccccccccccccccccccccccccccccccccccccccccccccccccccccccccccccccccccccccccccccccccccccccccccccccccccccccccccccccccccccc"
     style="stroke-width:0.0792908" />
  <path
     d="m 20.450475,9.0383292 c 0.58031,0.2718625 0.815577,0.7905698 1.046958,1.3572908 l 0.06914,0.165651 c 0.07481,0.179544 0.148912,0.359369 0.223015,0.539201 0.05272,0.126847 0.105471,0.253666 0.158288,0.380467 0.109866,0.26387 0.219495,0.527837 0.328983,0.791862 0.158141,0.380888 0.317854,0.761114 0.47817,1.141108 l 0.07667,0.181727 c 0.05061,0.119961 0.101224,0.23991 0.151834,0.359863 0.404586,0.959431 0.805021,1.920426 1.199635,2.883933 0.296612,0.724046 0.596414,1.446761 0.896953,2.169212 0.349801,0.840875 0.699051,1.681954 1.045284,2.52428 0.111237,0.270213 0.223554,0.539647 0.339561,0.807896 0.170569,0.394415 0.33264,0.792164 0.495283,1.189844 0.195544,0.476066 0.394933,0.950257 0.59787,1.423269 0.12539,0.292526 0.249984,0.585387 0.374546,0.878262 0.06292,0.147347 0.12621,0.294535 0.189878,0.441566 0.0905,0.209133 0.179691,0.418777 0.268637,0.628564 l 0.08411,0.191663 c 0.234929,0.560379 0.234929,0.560379 0.09946,0.888433 -0.170811,0.122105 -0.170811,0.122105 -0.383314,0.217068 l -0.210636,0.09744 c -0.50293,0.199059 -1.009494,0.259415 -1.5317,0.08942 -0.721733,-0.331795 -1.344747,-0.822514 -1.981323,-1.289148 -0.32512,-0.236009 -0.655208,-0.464846 -0.985639,-0.693448 l -0.200583,-0.139001 c -0.458604,-0.317059 -0.920119,-0.629721 -1.382454,-0.941404 -0.496027,-0.334573 -0.98404,-0.677392 -1.465895,-1.03167 -0.610863,-0.447784 -1.235511,-0.876356 -1.85967,-1.305662 -0.134722,-0.09327 -0.268859,-0.187377 -0.402527,-0.282127 l -0.20803,-0.146921 -0.186114,-0.132508 c -0.216125,-0.139713 -0.439181,-0.25156 -0.671674,-0.362067 -0.682628,1.659262 -1.358445,3.321117 -2.02844,4.985427 -0.146711,0.364232 -0.293728,0.728341 -0.440698,1.092469 H 11.05182 c 0.268618,-0.887348 0.268618,-0.887348 0.455806,-1.316897 l 0.06219,-0.143934 c 0.04438,-0.102591 0.08894,-0.205092 0.133683,-0.307522 0.123818,-0.283485 0.24621,-0.567572 0.368825,-0.851568 l 0.07976,-0.184413 c 0.2133,-0.493903 0.423249,-0.989151 0.63211,-1.484912 l 0.09656,-0.229163 c 0.126653,-0.300734 0.253215,-0.601501 0.379594,-0.902346 0.572246,-1.361944 0.572246,-1.361944 0.883942,-2.030272 0.195088,-0.428799 0.371576,-0.865544 0.551499,-1.300748 0.08427,-0.203047 0.168729,-0.406021 0.253261,-0.608962 l 0.06316,-0.151621 c 0.26357,-0.631696 0.536014,-1.259557 0.80953,-1.887071 0.407619,-0.936567 0.810811,-1.875027 1.213763,-2.813573 l 0.0891,-0.207467 c 0.433746,-1.010346 0.862349,-2.022614 1.281469,-3.03901 0.417842,-1.0097018 0.774345,-1.8660688 2.044403,-1.6424808 z"
     fill="#fbfbfb"
     id="path4"
     sodipodi:nodetypes="ccccccscccscscccccccccccccccccccccccccccccccccscccccc"
     style="stroke-width:0.0792908" />
  <path
     d="m 33.055514,4.6765477 c 0.102056,-7.105e-4 0.102056,-7.105e-4 0.206173,-0.00151 0.109772,4.737e-4 0.109772,4.737e-4 0.221768,9.709e-4 0.112957,-2.368e-4 0.112957,-2.368e-4 0.228194,-4.736e-4 0.159144,-7.89e-5 0.31829,1.579e-4 0.477432,8.446e-4 0.24421,8.446e-4 0.488371,7e-6 0.732578,-10e-4 0.154478,7.9e-5 0.308954,3.158e-4 0.463431,6.315e-4 0.07335,-3.157e-4 0.146688,-6.315e-4 0.222255,-9.709e-4 0.06778,4.737e-4 0.135573,9.946e-4 0.205415,0.00151 0.05977,1.578e-4 0.119543,2.367e-4 0.181118,3.947e-4 0.147573,0.020032 0.147573,0.020032 0.306871,0.1779 0.01836,0.1680427 0.01836,0.1680427 0.01493,0.3601351 -4.77e-4,0.063594 -0.001,0.127188 -0.0016,0.1927095 -0.01344,0.1575588 -0.01344,0.1575588 -0.09302,0.2364926 -0.04005,0.1828949 -0.07605,0.3650423 -0.109516,0.5491442 -0.01035,0.055204 -0.02062,0.1104073 -0.03122,0.1672851 -0.03303,0.177184 -0.06563,0.3544424 -0.0982,0.5317101 -0.03263,0.1764081 -0.06538,0.3527997 -0.0982,0.5291733 -0.02043,0.1098798 -0.04074,0.2197822 -0.0609,0.3297097 -0.07345,0.3969965 -0.07345,0.3969965 -0.122581,0.5650105 -0.04597,0.2111763 -0.04448,0.4076153 -0.04188,0.6234496 7.18e-4,0.077736 0.0015,0.1554758 0.0022,0.2355681 9.23e-4,0.059008 0.0019,0.1180291 0.0028,0.1788338 0.07554,9.551e-4 0.07554,9.551e-4 0.152607,0.002 0.523281,0.00679 1.04654,0.014639 1.569797,0.023124 0.195386,0.00306 0.390777,0.00573 0.586171,0.00826 0.28056,0.0036 0.561088,0.00813 0.84163,0.01292 0.08762,9.084e-4 0.175242,0.00186 0.265518,0.0028 0.0813,0.0016 0.162617,0.0032 0.24639,0.0048 0.07163,0.00105 0.143266,0.00213 0.217068,0.0032 0.182984,0.021978 0.182984,0.021978 0.421934,0.1798475 0.110833,0.571488 -0.06297,1.185372 -0.189169,1.741475 -0.01766,0.08084 -0.03532,0.161682 -0.05351,0.244973 -0.03469,0.158255 -0.06991,0.316398 -0.105712,0.474412 -0.03233,0.144496 -0.06336,0.289281 -0.09288,0.434366 -0.09945,0.482233 -0.09945,0.482233 -0.275583,0.656792 -0.188491,0.02198 -0.188491,0.02198 -0.427534,0.02516 -0.08929,0.0016 -0.178577,0.0032 -0.27057,0.0048 -0.145115,0.0013 -0.145115,0.0013 -0.293161,0.0028 -0.09878,0.0016 -0.197555,0.0031 -0.299325,0.0047 -0.262667,0.0039 -0.525331,0.0072 -0.78801,0.01012 -0.268021,0.0032 -0.536025,0.0072 -0.804033,0.01119 -0.525907,0.0076 -1.051818,0.01431 -1.577746,0.02035 -0.01008,0.07399 -0.02011,0.147983 -0.03047,0.224218 -0.0205,0.147102 -0.0205,0.147102 -0.0414,0.297176 -0.02001,0.145175 -0.02001,0.145175 -0.04043,0.293284 -0.0562,0.347213 -0.142582,0.68108 -0.233679,1.020531 -0.06173,0.256384 -0.08902,0.507595 -0.112634,0.769604 -0.02985,0.244322 -0.10992,0.474199 -0.17859,0.710404 -0.04153,0.247621 -0.07925,0.495435 -0.11449,0.744012 -0.0448,0.203192 -0.0448,0.203192 -0.204101,0.361059 -0.151132,0.02005 -0.151132,0.02005 -0.337266,0.02043 -0.06964,4.74e-4 -0.139277,9.95e-4 -0.211025,0.0015 -0.11301,-4.74e-4 -0.11301,-4.74e-4 -0.228293,-9.71e-4 -0.07719,1.58e-4 -0.15437,3.16e-4 -0.233892,4.74e-4 -0.163372,7.9e-5 -0.326741,-1.58e-4 -0.490111,-8.44e-4 -0.250683,-8.45e-4 -0.501322,-10e-6 -0.752003,0.001 -0.158471,-7.8e-5 -0.31694,-3.15e-4 -0.47541,-6.31e-4 -0.07534,3.16e-4 -0.150672,6.31e-4 -0.228291,9.71e-4 -0.104463,-7.1e-4 -0.104463,-7.1e-4 -0.211026,-0.0015 -0.06143,-1.57e-4 -0.12285,-2.37e-4 -0.186133,-3.95e-4 -0.151132,-0.02005 -0.151132,-0.02005 -0.310432,-0.177914 0.03679,-0.608707 0.190926,-1.209209 0.31362,-1.805608 0.02133,-0.104523 0.04265,-0.209047 0.06394,-0.313577 0.160114,-0.78511 0.160114,-0.78511 0.230217,-1.120856 0.01443,-0.06968 0.02886,-0.13936 0.04374,-0.211151 0.01237,-0.05922 0.02483,-0.118455 0.03761,-0.17947 0.03739,-0.213276 0.04446,-0.416167 0.02773,-0.631759 -0.131519,-0.130337 -0.286481,-0.09144 -0.46763,-0.09389 -0.08266,-0.0013 -0.165316,-0.0027 -0.250479,-0.004 -0.08993,-0.0011 -0.179871,-0.0021 -0.272533,-0.0032 -0.137443,-0.0021 -0.137443,-0.0021 -0.277665,-0.0044 -0.294073,-0.0047 -0.58815,-0.0088 -0.882232,-0.01292 -0.38664,-0.0053 -0.77327,-0.01119 -1.159898,-0.01726 -0.08993,-0.0011 -0.179871,-0.0021 -0.272531,-0.0032 -0.123992,-0.002 -0.123992,-0.002 -0.25048,-0.004 -0.07316,-9.87e-4 -0.146323,-0.002 -0.2217,-0.0031 -0.16628,-0.01199 -0.16628,-0.01199 -0.245931,-0.0909 -0.04094,-0.473053 0.02285,-0.922795 0.121963,-1.384115 0.01237,-0.06031 0.02474,-0.120626 0.0375,-0.182775 0.03911,-0.189891 0.07919,-0.379569 0.119314,-0.569255 0.02692,-0.129844 0.05379,-0.259706 0.08058,-0.389581 0.06534,-0.31594 0.131519,-0.6316922 0.19819,-0.9473591 0.234839,-0.077576 0.390236,-0.089617 0.635175,-0.091389 0.08054,-8.125e-4 0.161074,-0.0016 0.244053,-0.0024 0.08687,-5.528e-4 0.173742,-0.00115 0.263246,-0.00173 0.183257,-0.00226 0.366514,-0.00453 0.54977,-0.00679 0.289469,-0.0032 0.578926,-0.00613 0.868405,-0.00826 0.278992,-0.00213 0.557933,-0.00573 0.836905,-0.00959 0.08687,-2.358e-4 0.173742,-4.729e-4 0.263246,-7.886e-4 0.08054,-0.00131 0.161076,-0.00266 0.244054,-0.004 0.106371,-9.55e-4 0.106371,-9.55e-4 0.214884,-0.002 0.219414,-0.037443 0.288618,-0.092388 0.42029,-0.2677426 0.07218,-0.2523074 0.07218,-0.2523074 0.11699,-0.5482193 0.0097,-0.055252 0.01926,-0.1104899 0.02918,-0.1674092 0.02079,-0.1196542 0.04118,-0.2393776 0.06121,-0.3591596 0.08719,-0.5194832 0.181786,-1.0377684 0.274689,-1.5562721 0.02411,-0.1357108 0.04788,-0.2714838 0.07133,-0.4073107 0.03446,-0.1991427 0.0702,-0.3980232 0.10621,-0.5968975 0.01022,-0.060833 0.02043,-0.1216668 0.03095,-0.1843435 0.02765,-0.1491996 0.06601,-0.2963684 0.105955,-0.4428094 0.246439,-0.1627953 0.299095,-0.1776869 0.577945,-0.1782726 z"
     fill="#2771b3"
     id="path5"
     style="stroke-width:0.0792908" />
  <path
     d="m 19.892929,14.958359 c 0.263464,0.13055 0.320519,0.418556 0.42905,0.67741 0.02659,0.06226 0.05317,0.124516 0.08057,0.188658 0.08785,0.206077 0.174922,0.412467 0.261988,0.618871 0.06095,0.143445 0.121936,0.286872 0.182964,0.430282 0.187027,0.440035 0.372982,0.880511 0.558773,1.32106 0.05594,0.132522 0.111896,0.265042 0.167855,0.39756 0.27613,0.654261 0.551123,1.30898 0.825301,1.964047 0.149656,0.357188 0.300864,0.713686 0.452981,1.069853 0.0378,0.08878 0.07558,0.177553 0.114517,0.269021 0.06907,0.162122 0.138478,0.32411 0.208263,0.485936 0.02973,0.06996 0.05946,0.139907 0.09009,0.211981 0.03864,0.09006 0.03864,0.09006 0.07808,0.181936 0.05415,0.15569 0.05415,0.15569 0.05415,0.392492 -0.410534,-0.132362 -0.739353,-0.374713 -1.090204,-0.61667 -0.06692,-0.04575 -0.133831,-0.09151 -0.20278,-0.138655 -0.500682,-0.343786 -0.995158,-0.695663 -1.48748,-1.051075 -0.59733,-0.430122 -1.203954,-0.846775 -1.811289,-1.262862 -0.07503,-0.05146 -0.150058,-0.102911 -0.22736,-0.155922 -0.06721,-0.04597 -0.134412,-0.09193 -0.203655,-0.139289 -0.154457,-0.108612 -0.154457,-0.108612 -0.234107,-0.187545 0.02747,-0.547816 0.207031,-0.994175 0.423139,-1.494807 0.03116,-0.07402 0.06233,-0.148048 0.09442,-0.224314 0.14398,-0.340508 0.292049,-0.678699 0.446006,-1.014884 0.180184,-0.399068 0.320193,-0.809266 0.461097,-1.223164 0.0894,-0.257889 0.174127,-0.471749 0.327622,-0.69992 z"
     fill="#060607"
     id="path6"
     style="stroke-width:0.0792908" />
</svg>
